{
  "accessors": [
    {
      "bufferView": 2,
      "componentType": 5126,
      "count": 45164,
      "max": [
        0.38681402802467346,
        0.24260537326335907,
        0.9152386784553528
      ],
      "min": [
        -0.3631899058818817,
        -0.26698020100593567,
        0.005001329816877842
      ],
      "type": "VEC3"
    },
    {
      "bufferView": 2,
      "byteOffset": 541968,
      "componentType": 5126,
      "count": 45164,
      "max": [
        0.9999231100082397,
        0.9999902844429016,
        0.9999948740005493
      ],
      "min": [
        -0.9999974966049194,
        -0.9999955892562866,
        -0.999981164932251
      ],
      "type": "VEC3"
    },
    {
      "bufferView": 1,
      "componentType": 5126,
      "count": 45164,
      "max": [
        0.8501499891281128,
        0.9980400204658508
      ],
      "min": [
        0.0019499999471008778,
        0.0019499999471008778
      ],
      "type": "VEC2"
    },
    {
      "bufferView": 0,
      "componentType": 5125,
      "count": 262800,
      "type": "SCALAR"
    }
  ],
  "asset": {
    "extras": {
      "author": "RubyB (https://sketchfab.com/RubyB)",
      "license": "CC-BY-SA-4.0 (http://creativecommons.org/licenses/by-sa/4.0/)",
      "source": "https://sketchfab.com/3d-models/mike-sully-faceswap-meme-da10b8a72c324d53934fa9d872e4b3a5",
      "title": "Mike Sully Faceswap meme"
    },
    "generator": "Sketchfab-12.68.0",
    "version": "2.0"
  },
  "bufferViews": [
    {
      "buffer": 0,
      "byteLength": 1051200,
      "name": "floatBufferViews",
      "target": 34963
    },
    {
      "buffer": 0,
      "byteLength": 361312,
      "byteOffset": 1051200,
      "byteStride": 8,
      "name": "floatBufferViews",
      "target": 34962
    },
    {
      "buffer": 0,
      "byteLength": 1083936,
      "byteOffset": 1412512,
      "byteStride": 12,
      "name": "floatBufferViews",
      "target": 34962
    }
  ],
  "buffers": [
    {
      "byteLength": 2496448,
      "uri": "scene.bin"
    }
  ],
  "materials": [
    {
      "doubleSided": true,
      "name": "defaultMat",
      "pbrMetallicRoughness": {
        "metallicFactor": 0.0,
        "roughnessFactor": 0.6
      }
    }
  ],
  "meshes": [
    {
      "name": "Object_0",
      "primitives": [
        {
          "attributes": {
            "NORMAL": 1,
            "POSITION": 0,
            "TEXCOORD_0": 2
          },
          "indices": 3,
          "material": 0,
          "mode": 4
        }
      ]
    }
  ],
  "nodes": [
    {
      "children": [
        1
      ],
      "matrix": [
        1.2561696767807007,
        0.0,
        0.0,
        0.0,
        0.0,
        2.7892569959957496e-16,
        -1.2561696767807007,
        0.0,
        0.0,
        1.2561696767807007,
        2.7892569959957496e-16,
        0.0,
        0.0,
        0.0,
        0.0,
        1.0
      ],
      "name": "Sketchfab_model"
    },
    {
      "children": [
        2
      ],
      "name": "MikeSully.OBJ.cleaner.materialmerger.gles"
    },
    {
      "mesh": 0,
      "name": "Object_2"
    }
  ],
  "scene": 0,
  "scenes": [
    {
      "name": "Sketchfab_Scene",
      "nodes": [
        0
      ]
    }
  ]
}
