{
  "accessors": [
    {
      "bufferView": 3,
      "componentType": 5126,
      "count": 709,
      "max": [
        956.3345947265625,
        2489.824462890625,
        1423.9444580078125
      ],
      "min": [
        -1068.5810546875,
        -1088.44189453125,
        -782.6256103515625
      ],
      "type": "VEC3"
    },
    {
      "bufferView": 3,
      "byteOffset": 8508,
      "componentType": 5126,
      "count": 709,
      "max": [
        0.9952028393745422,
        0.9999620318412781,
        0.9997301697731018
      ],
      "min": [
        -0.9998683333396912,
        -0.9999620318412781,
        -0.9974454641342163
      ],
      "type": "VEC3"
    },
    {
      "bufferView": 2,
      "componentType": 5126,
      "count": 709,
      "max": [
        1.0000001192092896,
        1.0035103559494019
      ],
      "min": [
        0.0,
        0.0
      ],
      "type": "VEC2"
    },
    {
      "bufferView": 1,
      "componentType": 5125,
      "count": 3780,
      "type": "SCALAR"
    },
    {
      "bufferView": 3,
      "byteOffset": 17016,
      "componentType": 5126,
      "count": 336,
      "max": [
        165.4697265625,
        2553.901123046875,
        926.4146118164063
      ],
      "min": [
        -225.49844360351563,
        2473.59423828125,
        848.529296875
      ],
      "type": "VEC3"
    },
    {
      "bufferView": 3,
      "byteOffset": 21048,
      "componentType": 5126,
      "count": 336,
      "max": [
        0.9848078489303589,
        1.0,
        1.0
      ],
      "min": [
        -0.9848077297210693,
        -1.0,
        -0.9396935701370239
      ],
      "type": "VEC3"
    },
    {
      "bufferView": 2,
      "byteOffset": 5672,
      "componentType": 5126,
      "count": 336,
      "max": [
        1.0,
        1.0
      ],
      "min": [
        0.0,
        0.0
      ],
      "type": "VEC2"
    },
    {
      "bufferView": 1,
      "byteOffset": 15120,
      "componentType": 5125,
      "count": 1608,
      "type": "SCALAR"
    },
    {
      "bufferView": 3,
      "byteOffset": 25080,
      "componentType": 5126,
      "count": 1175,
      "max": [
        854.3568725585938,
        2611.97021484375,
        1180.5028076171875
      ],
      "min": [
        -919.2255249023438,
        -393.59832763671875,
        -2214.0263671875
      ],
      "type": "VEC3"
    },
    {
      "bufferView": 3,
      "byteOffset": 39180,
      "componentType": 5126,
      "count": 1175,
      "max": [
        0.9998665452003479,
        0.9991291761398315,
        0.9999411702156067
      ],
      "min": [
        -0.9997979402542114,
        -1.0,
        -0.9998885989189148
      ],
      "type": "VEC3"
    },
    {
      "bufferView": 2,
      "byteOffset": 8360,
      "componentType": 5126,
      "count": 1175,
      "max": [
        1.0,
        0.7500000596046448
      ],
      "min": [
        0.0,
        0.0
      ],
      "type": "VEC2"
    },
    {
      "bufferView": 1,
      "byteOffset": 21552,
      "componentType": 5125,
      "count": 6948,
      "type": "SCALAR"
    },
    {
      "bufferView": 3,
      "byteOffset": 53280,
      "componentType": 5126,
      "count": 152,
      "max": [
        673.24755859375,
        2443.596435546875,
        1429.7470703125
      ],
      "min": [
        81.7071304321289,
        2382.849853515625,
        1321.9329833984375
      ],
      "type": "VEC3"
    },
    {
      "bufferView": 3,
      "byteOffset": 55104,
      "componentType": 5126,
      "count": 152,
      "max": [
        0.9971377849578857,
        0.9960623979568481,
        0.997799277305603
      ],
      "min": [
        -0.9971306920051575,
        -0.996900200843811,
        -0.9977985620498657
      ],
      "type": "VEC3"
    },
    {
      "bufferView": 2,
      "byteOffset": 17760,
      "componentType": 5126,
      "count": 152,
      "max": [
        1.0,
        0.7406877279281616
      ],
      "min": [
        0.0,
        0.0
      ],
      "type": "VEC2"
    },
    {
      "bufferView": 1,
      "byteOffset": 49344,
      "componentType": 5125,
      "count": 228,
      "type": "SCALAR"
    },
    {
      "bufferView": 3,
      "byteOffset": 56928,
      "componentType": 5126,
      "count": 24,
      "max": [
        88.2584457397461,
        2408.078125,
        1405.5799560546875
      ],
      "min": [
        -368.1473083496094,
        2338.16748046875,
        1308.1751708984375
      ],
      "type": "VEC3"
    },
    {
      "bufferView": 3,
      "byteOffset": 57216,
      "componentType": 5126,
      "count": 24,
      "max": [
        0.9971303939819336,
        0.9949341416358948,
        0.997797966003418
      ],
      "min": [
        -0.9971303939819336,
        -0.9949340224266052,
        -0.9977976083755493
      ],
      "type": "VEC3"
    },
    {
      "bufferView": 2,
      "byteOffset": 18976,
      "componentType": 5126,
      "count": 24,
      "max": [
        0.875,
        1.0
      ],
      "min": [
        0.125,
        0.0
      ],
      "type": "VEC2"
    },
    {
      "bufferView": 1,
      "byteOffset": 50256,
      "componentType": 5125,
      "count": 36,
      "type": "SCALAR"
    },
    {
      "bufferView": 5,
      "componentType": 5126,
      "count": 13,
      "max": [
        1.000000238418579,
        0.00045747600961476564,
        0.0019409165252000093,
        0.0,
        0.0018572600092738867,
        1.000000238418579,
        0.001931293518282473,
        0.0,
        0.0019217068329453468,
        0.0019312930526211858,
        1.000000238418579,
        0.0,
        2.300516128540039,
        0.7712368369102478,
        0.0,
        1.0
      ],
      "min": [
        -0.0019409259548410773,
        -0.00045747836702503264,
        -0.0019409224623814225,
        0.0,
        -0.0018830903572961688,
        -0.0019024891080334783,
        -0.00010897327592829242,
        0.0,
        -0.0019209380261600018,
        -0.0013724410673603415,
        -0.001855095848441124,
        0.0,
        -1.9789334535598755,
        -1.8833270072937012,
        -4.394113540649414,
        1.0
      ],
      "type": "MAT4"
    },
    {
      "bufferView": 0,
      "componentType": 5123,
      "count": 709,
      "type": "VEC4"
    },
    {
      "bufferView": 4,
      "componentType": 5126,
      "count": 709,
      "max": [
        1.0,
        0.45902690291404724,
        0.24001960456371307,
        0.04124493896961212
      ],
      "min": [
        0.4027958810329437,
        0.0,
        0.0,
        0.0
      ],
      "type": "VEC4"
    },
    {
      "bufferView": 0,
      "byteOffset": 5672,
      "componentType": 5123,
      "count": 336,
      "type": "VEC4"
    },
    {
      "bufferView": 4,
      "byteOffset": 11344,
      "componentType": 5126,
      "count": 336,
      "max": [
        1.0,
        0.030719801783561707,
        0.0,
        0.0
      ],
      "min": [
        0.9692801833152771,
        0.0,
        0.0,
        0.0
      ],
      "type": "VEC4"
    },
    {
      "bufferView": 0,
      "byteOffset": 8360,
      "componentType": 5123,
      "count": 1175,
      "type": "VEC4"
    },
    {
      "bufferView": 4,
      "byteOffset": 16720,
      "componentType": 5126,
      "count": 1175,
      "max": [
        1.0,
        0.4972824156284332,
        0.2929328382015228,
        0.04918837547302246
      ],
      "min": [
        0.3662603199481964,
        0.0,
        0.0,
        0.0
      ],
      "type": "VEC4"
    },
    {
      "bufferView": 0,
      "byteOffset": 17760,
      "componentType": 5123,
      "count": 152,
      "type": "VEC4"
    },
    {
      "bufferView": 4,
      "byteOffset": 35520,
      "componentType": 5126,
      "count": 152,
      "max": [
        1.0,
        0.0,
        0.0,
        0.0
      ],
      "min": [
        1.0,
        0.0,
        0.0,
        0.0
      ],
      "type": "VEC4"
    },
    {
      "bufferView": 0,
      "byteOffset": 18976,
      "componentType": 5123,
      "count": 24,
      "type": "VEC4"
    },
    {
      "bufferView": 4,
      "byteOffset": 37952,
      "componentType": 5126,
      "count": 24,
      "max": [
        1.0,
        0.0,
        0.0,
        0.0
      ],
      "min": [
        1.0,
        0.0,
        0.0,
        0.0
      ],
      "type": "VEC4"
    },
    {
      "bufferView": 6,
      "componentType": 5126,
      "count": 42,
      "max": [
        1.4166666269302368
      ],
      "min": [
        0.0
      ],
      "type": "SCALAR"
    },
    {
      "bufferView": 7,
      "componentType": 5126,
      "count": 42,
      "max": [
        1.6508751032873192e-09,
        2.639944553375244,
        1.789726979950501e-07
      ],
      "min": [
        1.6508748812427143e-09,
        2.639944553375244,
        1.789726979950501e-07
      ],
      "type": "VEC3"
    },
    {
      "bufferView": 6,
      "byteOffset": 168,
      "componentType": 5126,
      "count": 68,
      "max": [
        1.4166666269302368
      ],
      "min": [
        0.0
      ],
      "type": "SCALAR"
    },
    {
      "bufferView": 8,
      "componentType": 5126,
      "count": 68,
      "max": [
        -0.16379335522651672,
        -1.3591184892748544e-14,
        0.007985362783074379,
        0.9769151210784912
      ],
      "min": [
        -0.5532946586608887,
        -0.13691170513629913,
        -1.319157121315584e-07,
        0.8329856395721436
      ],
      "type": "VEC4"
    },
    {
      "bufferView": 6,
      "byteOffset": 440,
      "componentType": 5126,
      "count": 68,
      "max": [
        1.4166666269302368
      ],
      "min": [
        0.0
      ],
      "type": "SCALAR"
    },
    {
      "bufferView": 8,
      "byteOffset": 1088,
      "componentType": 5126,
      "count": 68,
      "max": [
        0.15198369324207306,
        0.10687733441591263,
        3.623574329481016e-08,
        0.9987929463386536
      ],
      "min": [
        -0.21238084137439728,
        9.92183054194639e-15,
        -0.057281799614429474,
        0.9696341753005981
      ],
      "type": "VEC4"
    }
  ],
  "animations": [
    {
      "channels": [
        {
          "sampler": 0,
          "target": {
            "node": 16,
            "path": "translation"
          }
        },
        {
          "sampler": 1,
          "target": {
            "node": 16,
            "path": "rotation"
          }
        },
        {
          "sampler": 2,
          "target": {
            "node": 15,
            "path": "rotation"
          }
        }
      ],
      "name": "Armature|walk",
      "samplers": [
        {
          "input": 31,
          "interpolation": "LINEAR",
          "output": 32
        },
        {
          "input": 33,
          "interpolation": "LINEAR",
          "output": 34
        },
        {
          "input": 35,
          "interpolation": "LINEAR",
          "output": 36
        }
      ]
    }
  ],
  "asset": {
    "extras": {
      "author": "Bianca.Popa (https://sketchfab.com/Bianca.Popa)",
      "license": "CC-BY-4.0 (http://creativecommons.org/licenses/by/4.0/)",
      "source": "https://sketchfab.com/3d-models/goose-with-knife-fdc0d2f24a4c422dba503f2b9f445e24",
      "title": "goose with knife"
    },
    "generator": "Sketchfab-15.30.0",
    "version": "2.0"
  },
  "bufferViews": [
    {
      "buffer": 0,
      "byteLength": 19168,
      "byteStride": 8,
      "name": "shortBufferViews",
      "target": 34962
    },
    {
      "buffer": 0,
      "byteLength": 50400,
      "byteOffset": 19168,
      "name": "floatBufferViews",
      "target": 34963
    },
    {
      "buffer": 0,
      "byteLength": 19168,
      "byteOffset": 69568,
      "byteStride": 8,
      "name": "floatBufferViews",
      "target": 34962
    },
    {
      "buffer": 0,
      "byteLength": 57504,
      "byteOffset": 88736,
      "byteStride": 12,
      "name": "floatBufferViews",
      "target": 34962
    },
    {
      "buffer": 0,
      "byteLength": 38336,
      "byteOffset": 146240,
      "byteStride": 16,
      "name": "floatBufferViews",
      "target": 34962
    },
    {
      "buffer": 0,
      "byteLength": 832,
      "byteOffset": 184576,
      "name": "floatBufferViews"
    },
    {
      "buffer": 0,
      "byteLength": 712,
      "byteOffset": 185408,
      "name": "floatBufferViews"
    },
    {
      "buffer": 0,
      "byteLength": 504,
      "byteOffset": 186120,
      "byteStride": 12,
      "name": "floatBufferViews"
    },
    {
      "buffer": 0,
      "byteLength": 2176,
      "byteOffset": 186624,
      "byteStride": 16,
      "name": "floatBufferViews"
    }
  ],
  "buffers": [
    {
      "byteLength": 188800,
      "uri": "scene.bin"
    }
  ],
  "materials": [
    {
      "doubleSided": true,
      "name": "orange",
      "pbrMetallicRoughness": {
        "baseColorFactor": [
          0.66346,
          0.129741,
          0.0254747,
          1.0
        ],
        "metallicFactor": 0.0,
        "roughnessFactor": 0.9472999848592434
      }
    },
    {
      "doubleSided": true,
      "name": "black",
      "pbrMetallicRoughness": {
        "baseColorFactor": [
          0.0,
          0.0,
          0.0,
          1.0
        ],
        "metallicFactor": 0.0
      }
    },
    {
      "doubleSided": true,
      "name": "white",
      "pbrMetallicRoughness": {
        "metallicFactor": 0.0,
        "roughnessFactor": 0.7763932022500211
      }
    },
    {
      "doubleSided": true,
      "name": "metal",
      "pbrMetallicRoughness": {
        "baseColorFactor": [
          0.3111,
          0.3111,
          0.3111,
          1.0
        ],
        "metallicFactor": 0.0,
        "roughnessFactor": 0.9016215419921617
      }
    },
    {
      "doubleSided": true,
      "name": "cream",
      "pbrMetallicRoughness": {
        "baseColorFactor": [
          1.0,
          0.612559,
          0.1971,
          1.0
        ],
        "metallicFactor": 0.0,
        "roughnessFactor": 0.8513165021164786
      }
    }
  ],
  "meshes": [
    {
      "name": "BODY_orange_0",
      "primitives": [
        {
          "attributes": {
            "JOINTS_0": 21,
            "NORMAL": 1,
            "POSITION": 0,
            "TEXCOORD_0": 2,
            "WEIGHTS_0": 22
          },
          "indices": 3,
          "material": 0,
          "mode": 4
        }
      ]
    },
    {
      "name": "BODY_black_0",
      "primitives": [
        {
          "attributes": {
            "JOINTS_0": 23,
            "NORMAL": 5,
            "POSITION": 4,
            "TEXCOORD_0": 6,
            "WEIGHTS_0": 24
          },
          "indices": 7,
          "material": 1,
          "mode": 4
        }
      ]
    },
    {
      "name": "BODY_white_0",
      "primitives": [
        {
          "attributes": {
            "JOINTS_0": 25,
            "NORMAL": 9,
            "POSITION": 8,
            "TEXCOORD_0": 10,
            "WEIGHTS_0": 26
          },
          "indices": 11,
          "material": 2,
          "mode": 4
        }
      ]
    },
    {
      "name": "BODY_metal_0",
      "primitives": [
        {
          "attributes": {
            "JOINTS_0": 27,
            "NORMAL": 13,
            "POSITION": 12,
            "TEXCOORD_0": 14,
            "WEIGHTS_0": 28
          },
          "indices": 15,
          "material": 3,
          "mode": 4
        }
      ]
    },
    {
      "name": "BODY_cream_0",
      "primitives": [
        {
          "attributes": {
            "JOINTS_0": 29,
            "NORMAL": 17,
            "POSITION": 16,
            "TEXCOORD_0": 18,
            "WEIGHTS_0": 30
          },
          "indices": 19,
          "material": 4,
          "mode": 4
        }
      ]
    }
  ],
  "nodes": [
    {
      "children": [
        1
      ],
      "matrix": [
        1.0,
        0.0,
        0.0,
        0.0,
        0.0,
        2.220446049250313e-16,
        -1.0,
        0.0,
        0.0,
        1.0,
        2.220446049250313e-16,
        0.0,
        0.0,
        0.0,
        0.0,
        1.0
      ],
      "name": "Sketchfab_model"
    },
    {
      "children": [
        2
      ],
      "matrix": [
        0.009999999776482582,
        0.0,
        0.0,
        0.0,
        0.0,
        0.0,
        0.009999999776482582,
        0.0,
        0.0,
        -0.009999999776482582,
        0.0,
        0.0,
        0.0,
        0.0,
        0.0,
        1.0
      ],
      "name": "goose.fbx"
    },
    {
      "children": [
        3
      ],
      "name": "Object_2"
    },
    {
      "children": [
        4,
        5
      ],
      "name": "RootNode"
    },
    {
      "name": "BODY",
      "rotation": [
        0.0,
        1.0658138495302661e-14,
        0.0,
        1.0
      ],
      "scale": [
        1.000000238418579,
        1.000000238418579,
        1.000000238418579
      ],
      "translation": [
        9.279375490223174e-07,
        -1.7881393432617188e-05,
        4.4769622036255896e-05
      ]
    },
    {
      "children": [
        6
      ],
      "name": "Armature",
      "rotation": [
        5.338507591545749e-08,
        0.7071068286895752,
        0.7071067690849304,
        -5.338507946817117e-08
      ],
      "scale": [
        515.2181396484375,
        515.2181396484375,
        515.2181396484375
      ],
      "translation": [
        -33.33336639404297,
        82.00509643554688,
        -283.3334045410156
      ]
    },
    {
      "children": [
        7,
        9,
        10,
        11,
        12,
        13,
        8
      ],
      "name": "Object_6"
    },
    {
      "children": [
        14
      ],
      "name": "_rootJoint"
    },
    {
      "matrix": [
        1.0000001996694003,
        -5.595618234174524e-15,
        -9.444563051552377e-15,
        0.0,
        5.5956185178049696e-15,
        1.0000002249090127,
        1.5077380011163655e-08,
        0.0,
        9.444563197553817e-15,
        -1.5077379998379016e-08,
        1.0000002240610775,
        0.0,
        9.279545433230323e-07,
        -5.811681734257945e-05,
        9.090138598821795e-05,
        1.0
      ],
      "name": "Object_8"
    },
    {
      "mesh": 0,
      "name": "Object_9",
      "skin": 0
    },
    {
      "mesh": 1,
      "name": "Object_10",
      "skin": 0
    },
    {
      "mesh": 2,
      "name": "Object_11",
      "skin": 0
    },
    {
      "mesh": 3,
      "name": "Object_12",
      "skin": 0
    },
    {
      "mesh": 4,
      "name": "Object_13",
      "skin": 0
    },
    {
      "children": [
        15,
        18,
        22
      ],
      "name": "Bone_00",
      "rotation": [
        0.46494609117507935,
        1.0554063578638306e-07,
        5.5425882550252936e-08,
        0.8853390216827393
      ],
      "translation": [
        0.18035341799259186,
        -0.8001540303230286,
        -0.17890393733978271
      ]
    },
    {
      "children": [
        16
      ],
      "name": "Bone.009_01",
      "rotation": [
        0.15198369324207306,
        9.496702164620615e-15,
        3.623574329481016e-08,
        0.9883829951286316
      ],
      "scale": [
        0.9999999403953552,
        0.9999999403953552,
        1.0000001192092896
      ],
      "translation": [
        -1.3634632978209993e-08,
        2.3934595584869385,
        4.2999609206617606e-08
      ]
    },
    {
      "children": [
        17
      ],
      "name": "Bone.010_02",
      "rotation": [
        -0.5532946586608887,
        -1.1047472107310417e-14,
        -1.319157121315584e-07,
        0.8329855799674988
      ],
      "scale": [
        1.0,
        1.0,
        0.9999999403953552
      ],
      "translation": [
        1.6508749922650168e-09,
        2.639944553375244,
        1.789726979950501e-07
      ]
    },
    {
      "name": "Bone.010_end_09",
      "rotation": [
        -6.938893903907228e-18,
        -3.639594695233322e-23,
        -3.970466940254533e-23,
        1.0
      ],
      "translation": [
        2.7755575615628914e-17,
        1.950605869293213,
        0.0
      ]
    },
    {
      "children": [
        19
      ],
      "name": "Bone.003_03",
      "rotation": [
        0.7041890621185303,
        0.06416987627744675,
        0.704189121723175,
        0.06416931003332138
      ],
      "scale": [
        0.9999999403953552,
        0.9999998807907104,
        1.0000017881393433
      ],
      "translation": [
        1.164555549621582,
        0.060562700033187866,
        -0.4297574460506439
      ]
    },
    {
      "children": [
        20
      ],
      "name": "Bone.005_04",
      "rotation": [
        0.060545485466718674,
        0.03584972769021988,
        0.446418821811676,
        0.8920534253120422
      ],
      "scale": [
        0.9999998807907104,
        0.9999998807907104,
        0.9999998807907104
      ],
      "translation": [
        -9.427951397356082e-08,
        0.5489767789840698,
        -5.7866934355388366e-08
      ]
    },
    {
      "children": [
        21
      ],
      "name": "Bone.007_05",
      "rotation": [
        0.005653530824929476,
        0.1489846408367157,
        0.549489438533783,
        0.822090744972229
      ],
      "scale": [
        0.9999999403953552,
        0.9999999403953552,
        0.9999999403953552
      ],
      "translation": [
        -8.381903171539307e-09,
        1.386098027229309,
        -1.6577541828155518e-07
      ]
    },
    {
      "name": "Bone.007_end_010",
      "rotation": [
        1.3877787807814457e-17,
        3.851859888774472e-34,
        2.7755575615628914e-17,
        1.0
      ],
      "translation": [
        0.0,
        0.8234649300575256,
        0.0
      ]
    },
    {
      "children": [
        23
      ],
      "name": "Bone.004_06",
      "rotation": [
        -0.7041890621185303,
        0.06416991353034973,
        0.704189121723175,
        -0.06416934728622437
      ],
      "scale": [
        1.0,
        0.9999998807907104,
        1.0000046491622925
      ],
      "translation": [
        -1.0675091743469238,
        0.3057232201099396,
        -0.6143553853034973
      ]
    },
    {
      "children": [
        24
      ],
      "name": "Bone.006_07",
      "rotation": [
        0.06500644981861115,
        -0.02692713961005211,
        -0.4457910358905792,
        0.8923673033714294
      ],
      "scale": [
        0.9999998807907104,
        0.9999999403953552,
        0.9999998807907104
      ],
      "translation": [
        9.531305522614275e-09,
        0.5489770174026489,
        -7.842203331165365e-09
      ]
    },
    {
      "children": [
        25
      ],
      "name": "Bone.008_08",
      "rotation": [
        0.07502176612615585,
        -0.06061779707670212,
        -0.5443733334541321,
        0.8332796096801758
      ],
      "scale": [
        1.0,
        1.0,
        0.9999998807907104
      ],
      "translation": [
        -1.3969838619232178e-08,
        1.3860982656478882,
        2.8638169169425964e-08
      ]
    },
    {
      "name": "Bone.008_end_011",
      "rotation": [
        1.3877787807814457e-17,
        -3.469446951953614e-18,
        2.7755575615628914e-17,
        1.0
      ],
      "translation": [
        0.0,
        0.8234649300575256,
        -2.220446049250313e-16
      ]
    }
  ],
  "scene": 0,
  "scenes": [
    {
      "name": "Sketchfab_Scene",
      "nodes": [
        0
      ]
    }
  ],
  "skins": [
    {
      "inverseBindMatrices": 20,
      "joints": [
        7,
        14,
        15,
        16,
        17,
        18,
        19,
        20,
        21,
        22,
        23,
        24,
        25
      ],
      "skeleton": 7
    }
  ]
}
