{
  "accessors": [
    {
      "bufferView": 2,
      "componentType": 5126,
      "count": 2333,
      "max": [
        0.2154099941253662,
        0.24695999920368195,
        0.20000000298023224
      ],
      "min": [
        -0.2154099941253662,
        -0.22426000237464905,
        -0.20000000298023224
      ],
      "type": "VEC3"
    },
    {
      "bufferView": 2,
      "byteOffset": 27996,
      "componentType": 5126,
      "count": 2333,
      "max": [
        0.999138355255127,
        0.9936802387237549,
        0.9982029795646667
      ],
      "min": [
        -1.0,
        -0.9999147653579712,
        -0.9619445204734802
      ],
      "type": "VEC3"
    },
    {
      "bufferView": 1,
      "componentType": 5126,
      "count": 2333,
      "max": [
        0.5101199746131897,
        0.9366499781608582
      ],
      "min": [
        0.30678999423980713,
        0.5076199769973755
      ],
      "type": "VEC2"
    },
    {
      "bufferView": 0,
      "componentType": 5125,
      "count": 7656,
      "type": "SCALAR"
    },
    {
      "bufferView": 2,
      "byteOffset": 55992,
      "componentType": 5126,
      "count": 44,
      "max": [
        0.4691300094127655,
        -0.5555700063705444,
        -0.595329999923706
      ],
      "min": [
        -0.8314700126647949,
        -1.0,
        -0.8458099961280823
      ],
      "type": "VEC3"
    },
    {
      "bufferView": 2,
      "byteOffset": 56520,
      "componentType": 5126,
      "count": 44,
      "max": [
        0.47139981389045715,
        -0.6343916058540344,
        0.0
      ],
      "min": [
        -0.7730119228363037,
        -0.9951844215393066,
        0.0
      ],
      "type": "VEC3"
    },
    {
      "bufferView": 1,
      "byteOffset": 18664,
      "componentType": 5126,
      "count": 44,
      "max": [
        0.9884399771690369,
        0.9242799878120422
      ],
      "min": [
        0.6540899872779846,
        0.10046999901533127
      ],
      "type": "VEC2"
    },
    {
      "bufferView": 0,
      "byteOffset": 30624,
      "componentType": 5125,
      "count": 66,
      "type": "SCALAR"
    },
    {
      "bufferView": 2,
      "byteOffset": 57048,
      "componentType": 5126,
      "count": 255,
      "max": [
        0.19009999930858612,
        -0.08222000300884247,
        0.07202000170946121
      ],
      "min": [
        -0.19009999930858612,
        -0.5047799944877625,
        -0.290039986371994
      ],
      "type": "VEC3"
    },
    {
      "bufferView": 2,
      "byteOffset": 60108,
      "componentType": 5126,
      "count": 255,
      "max": [
        0.998675525188446,
        0.9272429943084717,
        0.9844930171966553
      ],
      "min": [
        -0.998675525188446,
        -0.9978325963020325,
        -0.9873018860816956
      ],
      "type": "VEC3"
    },
    {
      "bufferView": 1,
      "byteOffset": 19016,
      "componentType": 5126,
      "count": 255,
      "max": [
        0.6898800134658813,
        0.5835899710655212
      ],
      "min": [
        0.0,
        0.0
      ],
      "type": "VEC2"
    },
    {
      "bufferView": 0,
      "byteOffset": 30888,
      "componentType": 5125,
      "count": 891,
      "type": "SCALAR"
    },
    {
      "bufferView": 2,
      "byteOffset": 63168,
      "componentType": 5126,
      "count": 88,
      "max": [
        0.3439199924468994,
        0.40046000480651855,
        0.5029600262641907
      ],
      "min": [
        -0.35607999563217163,
        -0.11529000103473663,
        0.007540000136941671
      ],
      "type": "VEC3"
    },
    {
      "bufferView": 2,
      "byteOffset": 64224,
      "componentType": 5126,
      "count": 88,
      "max": [
        1.0,
        0.9996769428253174,
        0.9977293610572815
      ],
      "min": [
        -1.0,
        -0.7217817306518555,
        -0.7217817306518555
      ],
      "type": "VEC3"
    },
    {
      "bufferView": 3,
      "componentType": 5126,
      "count": 88,
      "max": [
        1.0,
        0.721805989742279,
        0.7076689600944519,
        1.0
      ],
      "min": [
        -1.0,
        -0.7395218014717102,
        -0.710633397102356,
        -1.0
      ],
      "type": "VEC4"
    },
    {
      "bufferView": 1,
      "byteOffset": 21056,
      "componentType": 5126,
      "count": 88,
      "max": [
        0.9563900232315063,
        0.9917100071907043
      ],
      "min": [
        0.47418999671936035,
        0.39006000757217407
      ],
      "type": "VEC2"
    },
    {
      "bufferView": 0,
      "byteOffset": 34452,
      "componentType": 5125,
      "count": 228,
      "type": "SCALAR"
    },
    {
      "bufferView": 2,
      "byteOffset": 65280,
      "componentType": 5126,
      "count": 3622,
      "max": [
        1.0976899862289429,
        0.6405900120735168,
        0.4089199900627136
      ],
      "min": [
        -1.112969994544983,
        -0.5917900204658508,
        -0.4089199900627136
      ],
      "type": "VEC3"
    },
    {
      "bufferView": 2,
      "byteOffset": 108744,
      "componentType": 5126,
      "count": 3622,
      "max": [
        1.0,
        1.0,
        1.0
      ],
      "min": [
        -1.0,
        -1.0,
        -1.0
      ],
      "type": "VEC3"
    },
    {
      "bufferView": 3,
      "byteOffset": 1408,
      "componentType": 5126,
      "count": 3622,
      "max": [
        1.0,
        1.0,
        1.0,
        1.0
      ],
      "min": [
        -1.0,
        -1.0,
        -1.0,
        -1.0
      ],
      "type": "VEC4"
    },
    {
      "bufferView": 1,
      "byteOffset": 21760,
      "componentType": 5126,
      "count": 3622,
      "max": [
        0.9580000042915344,
        0.9989299774169922
      ],
      "min": [
        0.001069999998435378,
        0.001069999998435378
      ],
      "type": "VEC2"
    },
    {
      "bufferView": 0,
      "byteOffset": 35364,
      "componentType": 5125,
      "count": 7968,
      "type": "SCALAR"
    },
    {
      "bufferView": 2,
      "byteOffset": 152208,
      "componentType": 5126,
      "count": 28,
      "max": [
        -0.2678399980068207,
        0.4003700017929077,
        0.28279000520706177
      ],
      "min": [
        -0.8334100246429443,
        0.021220000460743904,
        -0.28279000520706177
      ],
      "type": "VEC3"
    },
    {
      "bufferView": 2,
      "byteOffset": 152544,
      "componentType": 5126,
      "count": 28,
      "max": [
        1.0,
        0.0,
        0.9983667731285095
      ],
      "min": [
        -1.0,
        0.0,
        -0.9983667731285095
      ],
      "type": "VEC3"
    },
    {
      "bufferView": 3,
      "byteOffset": 59360,
      "componentType": 5126,
      "count": 28,
      "max": [
        0.0,
        1.0,
        0.0,
        1.0
      ],
      "min": [
        0.0,
        1.0,
        0.0,
        -1.0
      ],
      "type": "VEC4"
    },
    {
      "bufferView": 1,
      "byteOffset": 50736,
      "componentType": 5126,
      "count": 28,
      "max": [
        0.15518000721931458,
        0.37307998538017273
      ],
      "min": [
        0.007660000119358301,
        0.26934999227523804
      ],
      "type": "VEC2"
    },
    {
      "bufferView": 0,
      "byteOffset": 67236,
      "componentType": 5125,
      "count": 48,
      "type": "SCALAR"
    },
    {
      "bufferView": 4,
      "componentType": 5126,
      "count": 300,
      "max": [
        12.541669845581055
      ],
      "min": [
        0.041669998317956924
      ],
      "type": "SCALAR"
    },
    {
      "bufferView": 5,
      "componentType": 5126,
      "count": 300,
      "max": [
        0.0,
        0.0,
        0.9999600052833557,
        1.0
      ],
      "min": [
        0.0,
        0.0,
        -0.9996700286865234,
        -0.008620000444352627
      ],
      "type": "VEC4"
    }
  ],
  "animations": [
    {
      "channels": [
        {
          "sampler": 0,
          "target": {
            "node": 4,
            "path": "rotation"
          }
        }
      ],
      "name": "Peace was never an option",
      "samplers": [
        {
          "input": 27,
          "interpolation": "LINEAR",
          "output": 28
        }
      ]
    }
  ],
  "asset": {
    "extras": {
      "author": "Marius Dobre (https://sketchfab.com/Marius.Dobre)",
      "license": "CC-BY-4.0 (http://creativecommons.org/licenses/by/4.0/)",
      "source": "https://sketchfab.com/3d-models/tank-cat-afec0186c75f447db3ca880427765b25",
      "title": "Tank Cat"
    },
    "generator": "Sketchfab-12.64.0",
    "version": "2.0"
  },
  "bufferViews": [
    {
      "buffer": 0,
      "byteLength": 67428,
      "name": "floatBufferViews",
      "target": 34963
    },
    {
      "buffer": 0,
      "byteLength": 50960,
      "byteOffset": 67428,
      "byteStride": 8,
      "name": "floatBufferViews",
      "target": 34962
    },
    {
      "buffer": 0,
      "byteLength": 152880,
      "byteOffset": 118388,
      "byteStride": 12,
      "name": "floatBufferViews",
      "target": 34962
    },
    {
      "buffer": 0,
      "byteLength": 59808,
      "byteOffset": 271268,
      "byteStride": 16,
      "name": "floatBufferViews",
      "target": 34962
    },
    {
      "buffer": 0,
      "byteLength": 1200,
      "byteOffset": 331076,
      "name": "floatBufferViews"
    },
    {
      "buffer": 0,
      "byteLength": 4800,
      "byteOffset": 332276,
      "byteStride": 16,
      "name": "floatBufferViews"
    }
  ],
  "buffers": [
    {
      "byteLength": 337076,
      "uri": "scene.bin"
    }
  ],
  "extensionsRequired": [
    "KHR_materials_pbrSpecularGlossiness"
  ],
  "extensionsUsed": [
    "KHR_materials_pbrSpecularGlossiness"
  ],
  "images": [
    {
      "uri": "textures/grumpy-cat-6-690x690_diffuse.png"
    },
    {
      "uri": "textures/occ1_diffuse.png"
    },
    {
      "uri": "textures/occ1_specularGlossiness.png"
    },
    {
      "uri": "textures/occ1_normal.png"
    },
    {
      "uri": "textures/occ1_occlusion.png"
    }
  ],
  "materials": [
    {
      "alphaMode": "BLEND",
      "doubleSided": true,
      "extensions": {
        "KHR_materials_pbrSpecularGlossiness": {
          "diffuseFactor": [
            1.0,
            1.0,
            1.0,
            1.0
          ],
          "diffuseTexture": {
            "index": 0
          },
          "glossinessFactor": 0.4,
          "specularFactor": [
            0.0,
            0.0,
            0.0
          ]
        }
      },
      "name": "grumpy-cat-6-690x690"
    },
    {
      "doubleSided": true,
      "extensions": {
        "KHR_materials_pbrSpecularGlossiness": {
          "diffuseFactor": [
            1.0,
            1.0,
            1.0,
            1.0
          ],
          "diffuseTexture": {
            "index": 1
          },
          "glossinessFactor": 1.0,
          "specularFactor": [
            0.0,
            0.0,
            0.0
          ],
          "specularGlossinessTexture": {
            "index": 2
          }
        }
      },
      "name": "occ1",
      "normalTexture": {
        "index": 3,
        "scale": 0.8131027702
      },
      "occlusionTexture": {
        "index": 4
      }
    }
  ],
  "meshes": [
    {
      "name": "CatHead_0",
      "primitives": [
        {
          "attributes": {
            "NORMAL": 1,
            "POSITION": 0,
            "TEXCOORD_0": 2
          },
          "indices": 3,
          "material": 0,
          "mode": 4
        }
      ]
    },
    {
      "name": "Cylinder_0",
      "primitives": [
        {
          "attributes": {
            "NORMAL": 5,
            "POSITION": 4,
            "TEXCOORD_0": 6
          },
          "indices": 7,
          "material": 0,
          "mode": 4
        }
      ]
    },
    {
      "name": "CatBody_0",
      "primitives": [
        {
          "attributes": {
            "NORMAL": 9,
            "POSITION": 8,
            "TEXCOORD_0": 10
          },
          "indices": 11,
          "material": 0,
          "mode": 4
        }
      ]
    },
    {
      "name": "cover_0",
      "primitives": [
        {
          "attributes": {
            "NORMAL": 13,
            "POSITION": 12,
            "TANGENT": 14,
            "TEXCOORD_0": 15
          },
          "indices": 16,
          "material": 1,
          "mode": 4
        }
      ]
    },
    {
      "name": "tank_0",
      "primitives": [
        {
          "attributes": {
            "NORMAL": 18,
            "POSITION": 17,
            "TANGENT": 19,
            "TEXCOORD_0": 20
          },
          "indices": 21,
          "material": 1,
          "mode": 4
        }
      ]
    },
    {
      "name": "interior_0",
      "primitives": [
        {
          "attributes": {
            "NORMAL": 23,
            "POSITION": 22,
            "TANGENT": 24,
            "TEXCOORD_0": 25
          },
          "indices": 26,
          "material": 1,
          "mode": 4
        }
      ]
    }
  ],
  "nodes": [
    {
      "children": [
        1
      ],
      "matrix": [
        1.4328407049179077,
        0.0,
        0.0,
        0.0,
        0.0,
        3.181545482440002e-16,
        -1.4328407049179077,
        0.0,
        0.0,
        1.4328407049179077,
        3.181545482440002e-16,
        0.0,
        0.0,
        0.0,
        0.0,
        1.0
      ],
      "name": "Sketchfab_model"
    },
    {
      "children": [
        2,
        4,
        6,
        8,
        10,
        12
      ],
      "name": "Root"
    },
    {
      "children": [
        3
      ],
      "matrix": [
        0.6541500000000001,
        0.5533,
        -0.026620000000000005,
        0.0,
        0.07356000000000001,
        -0.04594000000000001,
        0.8527800000000001,
        0.0,
        0.40321,
        -0.47962000000000005,
        -0.060620000000000014,
        0.0,
        0.038700000000000005,
        0.16012,
        -0.27597000000000005,
        1.0
      ],
      "name": "CatHead"
    },
    {
      "mesh": 0,
      "name": "CatHead_0"
    },
    {
      "children": [
        5
      ],
      "name": "Cylinder",
      "scale": [
        1.5080900192260742,
        1.5080900192260742,
        1.5080900192260742
      ],
      "translation": [
        0.03869999945163727,
        0.16011999547481537,
        -0.24036000669002533
      ]
    },
    {
      "mesh": 1,
      "name": "Cylinder_0"
    },
    {
      "children": [
        7
      ],
      "matrix": [
        0.76448,
        0.6446500000000002,
        -0.0,
        0.0,
        0.0,
        -0.0,
        1.0,
        0.0,
        0.47343,
        -0.56143,
        -0.0,
        0.0,
        0.038700000000000005,
        0.16012,
        -0.24036000000000002,
        1.0
      ],
      "name": "CatBody"
    },
    {
      "mesh": 2,
      "name": "CatBody_0"
    },
    {
      "children": [
        9
      ],
      "matrix": [
        0.5296900000000001,
        0.8481900000000001,
        0.0,
        0.0,
        -0.8481900000000001,
        0.5296900000000001,
        0.0,
        0.0,
        0.0,
        0.0,
        1.0,
        0.0,
        0.05715000000000001,
        0.15370000000000003,
        -0.39893000000000006,
        1.0
      ],
      "name": "cover"
    },
    {
      "mesh": 3,
      "name": "cover_0"
    },
    {
      "children": [
        11
      ],
      "matrix": [
        1.0,
        0.0,
        0.0,
        0.0,
        0.0,
        -0.0,
        1.0,
        0.0,
        0.0,
        -1.0,
        -0.0,
        0.0,
        0.5812200000000001,
        0.16593000000000005,
        -0.8,
        1.0
      ],
      "name": "tank"
    },
    {
      "mesh": 4,
      "name": "tank_0"
    },
    {
      "children": [
        13
      ],
      "matrix": [
        1.0,
        0.0,
        0.0,
        0.0,
        0.0,
        -0.0,
        1.0,
        0.0,
        0.0,
        -1.0,
        -0.0,
        0.0,
        0.5812200000000001,
        0.16593000000000005,
        -0.8,
        1.0
      ],
      "name": "interior"
    },
    {
      "mesh": 5,
      "name": "interior_0"
    }
  ],
  "samplers": [
    {
      "magFilter": 9729,
      "minFilter": 9987,
      "wrapS": 10497,
      "wrapT": 10497
    }
  ],
  "scene": 0,
  "scenes": [
    {
      "name": "Sketchfab_Scene",
      "nodes": [
        0
      ]
    }
  ],
  "textures": [
    {
      "sampler": 0,
      "source": 0
    },
    {
      "sampler": 0,
      "source": 1
    },
    {
      "sampler": 0,
      "source": 2
    },
    {
      "sampler": 0,
      "source": 3
    },
    {
      "sampler": 0,
      "source": 4
    }
  ]
}
