{
  "accessors": [
    {
      "bufferView": 1,
      "componentType": 5126,
      "count": 1062,
      "max": [
        58.36600112915039,
        -112.58820343017578,
        -5.602399826049805
      ],
      "min": [
        50.53900146484375,
        -117.51679992675781,
        -10.309800148010254
      ],
      "type": "VEC3"
    },
    {
      "bufferView": 1,
      "byteOffset": 12744,
      "componentType": 5126,
      "count": 1062,
      "max": [
        0.9998092651367188,
        0.9308620691299438,
        0.9044613838195801
      ],
      "min": [
        -0.9998427629470825,
        -0.9011412858963013,
        -0.990725576877594
      ],
      "type": "VEC3"
    },
    {
      "bufferView": 0,
      "componentType": 5125,
      "count": 3552,
      "type": "SCALAR"
    },
    {
      "bufferView": 1,
      "byteOffset": 25488,
      "componentType": 5126,
      "count": 213,
      "max": [
        56.74800109863281,
        -113.40899658203125,
        -5.730199813842773
      ],
      "min": [
        52.66600036621094,
        -116.33989715576172,
        -6.203999996185303
      ],
      "type": "VEC3"
    },
    {
      "bufferView": 1,
      "byteOffset": 28044,
      "componentType": 5126,
      "count": 213,
      "max": [
        0.9996066093444824,
        0.9930585622787476,
        0.11775998771190643
      ],
      "min": [
        -0.9995850324630737,
        -0.9929757714271545,
        -0.9931553602218628
      ],
      "type": "VEC3"
    },
    {
      "bufferView": 0,
      "byteOffset": 14208,
      "componentType": 5125,
      "count": 633,
      "type": "SCALAR"
    },
    {
      "bufferView": 1,
      "byteOffset": 30600,
      "componentType": 5126,
      "count": 1865,
      "max": [
        58.645999908447266,
        -118.25029754638672,
        -7.241399765014648
      ],
      "min": [
        51.00400161743164,
        -121.25630187988281,
        -9.670000076293945
      ],
      "type": "VEC3"
    },
    {
      "bufferView": 1,
      "byteOffset": 52980,
      "componentType": 5126,
      "count": 1865,
      "max": [
        0.9985117316246033,
        0.9907917976379395,
        0.6013858318328857
      ],
      "min": [
        -0.9985566139221191,
        -0.9958618879318237,
        -0.999466598033905
      ],
      "type": "VEC3"
    },
    {
      "bufferView": 0,
      "byteOffset": 16740,
      "componentType": 5125,
      "count": 7461,
      "type": "SCALAR"
    },
    {
      "bufferView": 1,
      "byteOffset": 75360,
      "componentType": 5126,
      "count": 65532,
      "max": [
        68.70099639892578,
        -30.31800079345703,
        19.761999130249023
      ],
      "min": [
        40.8650016784668,
        -88.58899688720703,
        -11.640999794006348
      ],
      "type": "VEC3"
    },
    {
      "bufferView": 1,
      "byteOffset": 861744,
      "componentType": 5126,
      "count": 65532,
      "max": [
        1.0,
        1.0,
        1.0
      ],
      "min": [
        -1.0,
        -1.0,
        -1.0
      ],
      "type": "VEC3"
    },
    {
      "bufferView": 0,
      "byteOffset": 46584,
      "componentType": 5125,
      "count": 199137,
      "type": "SCALAR"
    },
    {
      "bufferView": 1,
      "byteOffset": 1648128,
      "componentType": 5126,
      "count": 65532,
      "max": [
        73.16999816894531,
        -40.59700012207031,
        7.848999977111816
      ],
      "min": [
        37.0,
        -126.0,
        -11.968999862670898
      ],
      "type": "VEC3"
    },
    {
      "bufferView": 1,
      "byteOffset": 2434512,
      "componentType": 5126,
      "count": 65532,
      "max": [
        1.0,
        1.0,
        1.0
      ],
      "min": [
        -1.0,
        -1.0,
        -1.0
      ],
      "type": "VEC3"
    },
    {
      "bufferView": 0,
      "byteOffset": 843132,
      "componentType": 5125,
      "count": 185271,
      "type": "SCALAR"
    },
    {
      "bufferView": 1,
      "byteOffset": 3220896,
      "componentType": 5126,
      "count": 65534,
      "max": [
        71.41500091552734,
        -30.0,
        19.761999130249023
      ],
      "min": [
        37.4119987487793,
        -125.87999725341797,
        -12.0
      ],
      "type": "VEC3"
    },
    {
      "bufferView": 1,
      "byteOffset": 4007304,
      "componentType": 5126,
      "count": 65534,
      "max": [
        1.0,
        1.0,
        1.0
      ],
      "min": [
        -1.0,
        -1.0,
        -1.0
      ],
      "type": "VEC3"
    },
    {
      "bufferView": 0,
      "byteOffset": 1584216,
      "componentType": 5125,
      "count": 181155,
      "type": "SCALAR"
    },
    {
      "bufferView": 1,
      "byteOffset": 4793712,
      "componentType": 5126,
      "count": 50986,
      "max": [
        73.16999816894531,
        -32.33700180053711,
        6.84499979019165
      ],
      "min": [
        37.91699981689453,
        -125.24500274658203,
        -11.095999717712402
      ],
      "type": "VEC3"
    },
    {
      "bufferView": 1,
      "byteOffset": 5405544,
      "componentType": 5126,
      "count": 50986,
      "max": [
        1.0,
        1.0,
        1.0
      ],
      "min": [
        -1.0,
        -1.0,
        -1.0
      ],
      "type": "VEC3"
    },
    {
      "bufferView": 0,
      "byteOffset": 2308836,
      "componentType": 5125,
      "count": 117882,
      "type": "SCALAR"
    },
    {
      "bufferView": 1,
      "byteOffset": 6017376,
      "componentType": 5126,
      "count": 4022,
      "max": [
        59.98419952392578,
        -111.875,
        0.963699996471405
      ],
      "min": [
        49.20899963378906,
        -122.8196029663086,
        -11.08899974822998
      ],
      "type": "VEC3"
    },
    {
      "bufferView": 1,
      "byteOffset": 6065640,
      "componentType": 5126,
      "count": 4022,
      "max": [
        0.9986552596092224,
        0.9998050928115845,
        0.9760465025901794
      ],
      "min": [
        -0.9989468455314636,
        -0.9352525472640991,
        -0.9999765753746033
      ],
      "type": "VEC3"
    },
    {
      "bufferView": 0,
      "byteOffset": 2780364,
      "componentType": 5125,
      "count": 15876,
      "type": "SCALAR"
    }
  ],
  "asset": {
    "extras": {
      "author": "₵₳₮ ₵Ɽł₮ł₵₳Ⱡ. (https://sketchfab.com/cat_critical)",
      "license": "CC-BY-4.0 (http://creativecommons.org/licenses/by/4.0/)",
      "source": "https://sketchfab.com/3d-models/darth-kermit-the-wise-5d59ba11ba1c40af913217ba03c8b3d6",
      "title": "Darth Kermit The Wise"
    },
    "generator": "Sketchfab-15.36.0",
    "version": "2.0"
  },
  "bufferViews": [
    {
      "buffer": 0,
      "byteLength": 2843868,
      "name": "floatBufferViews",
      "target": 34963
    },
    {
      "buffer": 0,
      "byteLength": 6113904,
      "byteOffset": 2843868,
      "byteStride": 12,
      "name": "floatBufferViews",
      "target": 34962
    }
  ],
  "buffers": [
    {
      "byteLength": 8957772,
      "uri": "scene.bin"
    }
  ],
  "extensionsUsed": [
    "KHR_materials_unlit"
  ],
  "materials": [
    {
      "doubleSided": true,
      "extensions": {
        "KHR_materials_unlit": {}
      },
      "name": "color_14034019",
      "pbrMetallicRoughness": {
        "baseColorFactor": [
          1.0,
          0.0,
          0.19241179140776107,
          1.0
        ],
        "metallicFactor": 0.0
      }
    },
    {
      "doubleSided": true,
      "extensions": {
        "KHR_materials_unlit": {}
      },
      "name": "color_16345508",
      "pbrMetallicRoughness": {
        "baseColorFactor": [
          0.5099734656776583,
          0.05066994235731699,
          0.19745245078718796,
          1.0
        ],
        "metallicFactor": 0.0
      }
    },
    {
      "doubleSided": true,
      "extensions": {
        "KHR_materials_unlit": {}
      },
      "name": "color_16448250",
      "pbrMetallicRoughness": {
        "baseColorFactor": [
          0.980392,
          0.980392,
          0.980392,
          1.0
        ],
        "metallicFactor": 0.0
      }
    },
    {
      "doubleSided": true,
      "extensions": {
        "KHR_materials_unlit": {}
      },
      "name": "color_2829873",
      "pbrMetallicRoughness": {
        "baseColorFactor": [
          0.168627,
          0.180392,
          0.192157,
          1.0
        ],
        "metallicFactor": 0.0
      }
    },
    {
      "doubleSided": true,
      "extensions": {
        "KHR_materials_unlit": {}
      },
      "name": "color_4634441",
      "pbrMetallicRoughness": {
        "baseColorFactor": [
          0.029849037491580216,
          0.9374309803772055,
          0.03874380668977484,
          1.0
        ],
        "metallicFactor": 0.0
      }
    }
  ],
  "meshes": [
    {
      "name": "Object_0",
      "primitives": [
        {
          "attributes": {
            "NORMAL": 1,
            "POSITION": 0
          },
          "indices": 2,
          "material": 0,
          "mode": 4
        }
      ]
    },
    {
      "name": "Object_1",
      "primitives": [
        {
          "attributes": {
            "NORMAL": 4,
            "POSITION": 3
          },
          "indices": 5,
          "material": 1,
          "mode": 4
        }
      ]
    },
    {
      "name": "Object_2",
      "primitives": [
        {
          "attributes": {
            "NORMAL": 7,
            "POSITION": 6
          },
          "indices": 8,
          "material": 2,
          "mode": 4
        }
      ]
    },
    {
      "name": "Object_3",
      "primitives": [
        {
          "attributes": {
            "NORMAL": 10,
            "POSITION": 9
          },
          "indices": 11,
          "material": 3,
          "mode": 4
        }
      ]
    },
    {
      "name": "Object_4",
      "primitives": [
        {
          "attributes": {
            "NORMAL": 13,
            "POSITION": 12
          },
          "indices": 14,
          "material": 3,
          "mode": 4
        }
      ]
    },
    {
      "name": "Object_5",
      "primitives": [
        {
          "attributes": {
            "NORMAL": 16,
            "POSITION": 15
          },
          "indices": 17,
          "material": 3,
          "mode": 4
        }
      ]
    },
    {
      "name": "Object_6",
      "primitives": [
        {
          "attributes": {
            "NORMAL": 19,
            "POSITION": 18
          },
          "indices": 20,
          "material": 3,
          "mode": 4
        }
      ]
    },
    {
      "name": "Object_7",
      "primitives": [
        {
          "attributes": {
            "NORMAL": 22,
            "POSITION": 21
          },
          "indices": 23,
          "material": 4,
          "mode": 4
        }
      ]
    }
  ],
  "nodes": [
    {
      "children": [
        1
      ],
      "matrix": [
        1.0,
        0.0,
        0.0,
        0.0,
        0.0,
        -1.0,
        0.0,
        0.0,
        0.0,
        0.0,
        -1.0,
        0.0,
        0.0,
        0.0,
        0.0,
        1.0
      ],
      "name": "Sketchfab_model"
    },
    {
      "children": [
        2,
        3,
        4,
        5,
        6,
        7,
        8,
        9
      ],
      "name": "tinker.obj.cleaner.materialmerger.gles"
    },
    {
      "mesh": 0,
      "name": "Object_2"
    },
    {
      "mesh": 1,
      "name": "Object_3"
    },
    {
      "mesh": 2,
      "name": "Object_4"
    },
    {
      "mesh": 3,
      "name": "Object_5"
    },
    {
      "mesh": 4,
      "name": "Object_6"
    },
    {
      "mesh": 5,
      "name": "Object_7"
    },
    {
      "mesh": 6,
      "name": "Object_8"
    },
    {
      "mesh": 7,
      "name": "Object_9"
    }
  ],
  "scene": 0,
  "scenes": [
    {
      "name": "Sketchfab_Scene",
      "nodes": [
        0
      ]
    }
  ]
}
